<svg width="60" height="60" viewBox="0 0 60 60" fill="none" xmlns="http://www.w3.org/2000/svg">
<path d="M14.1733 52.3237L24.3249 39.1938L28.9686 45.5114L20.0182 57.6516C16.5904 62.2974 10.2474 57.4017 14.1733 52.3237ZM26.0291 22.4235C26.9959 19.059 26.5515 16.184 22.9186 11.9133L14.0415 0.523014C12.7817 -1.05507 9.81286 1.26258 11.0531 3.17398L18.1529 12.5019C19.4957 14.2414 17.0005 16.5434 15.6138 14.7518L8.26985 5.10622C6.90263 3.43439 4.07541 5.64266 5.50611 7.55407C7.57647 10.2102 10.7797 14.5487 12.85 17.2048C14.2856 18.7621 12.103 21.0693 10.6869 19.1267L3.39668 9.5436C2.32732 8.30405 0.579229 9.07486 0.115351 10.5227C-0.382709 12.0696 0.842908 13.1997 1.67789 14.3455L9.81286 25.5536C12.3373 28.6733 15.1597 30.5222 18.441 29.4753C18.9439 29.3139 19.5592 28.9858 20.2184 28.5535L42.0744 58.6464C43.2512 60.2662 45.5217 60.438 46.9964 59.1308L47.3333 58.8339C48.9935 57.36 49.2621 54.6674 47.8411 52.9278L24.696 24.564C25.3699 23.762 25.8631 23.0016 26.0291 22.4235ZM32.2158 28.9858L35.8145 24.3296C31.1855 12.0904 48.3392 -4.22165 56.6548 3.27815C66.7576 12.3977 51.7426 34.3762 41.1906 28.9441L36.9278 34.72L32.2158 28.9858Z" fill="#F5FEBA"/>
</svg>
