<svg width="60" height="60" viewBox="0 0 60 60" fill="none" xmlns="http://www.w3.org/2000/svg">
<path d="M11.0625 33.75L13.3125 38.25C13.6875 39 14.25 39.375 15 39.375H46.875C47.625 39.375 48.1875 39 48.5625 38.25L50.8125 33.75H11.0625Z" fill="#F5FEBA"/>
<path d="M7.5 31.875H10.125H51.75H54.375C55.5 31.875 56.25 31.125 56.25 30C56.25 28.875 55.5 28.125 54.375 28.125H52.5C52.125 18.1875 44.8125 9.9375 35.4375 7.875C35.4375 7.5 35.625 7.125 35.625 6.5625C35.625 3.9375 33.5625 1.875 30.9375 1.875C28.3125 1.875 26.25 3.9375 26.25 6.5625C26.25 7.125 26.4375 7.5 26.4375 7.875C17.0625 9.9375 9.9375 18.1875 9.375 28.125H7.5C6.375 28.125 5.625 28.875 5.625 30C5.625 31.125 6.375 31.875 7.5 31.875Z" fill="#F5FEBA"/>
<path d="M46.125 41.8125C45.9375 41.4375 45.375 41.25 45 41.25C44.25 41.25 43.6875 41.25 42.9375 41.4375L40.875 44.25C38.8125 47.0625 35.4375 48.75 31.875 48.75H31.3125H30H27.5625H26.25C25.125 48.75 24.375 48 24.375 46.875C24.375 45.75 25.125 45 26.25 45H32.8125C33.375 44.4375 33.75 43.5 33.75 42.5625V42.375C33.75 41.625 33.1875 41.25 32.4375 41.25H24.9375C20.4375 41.25 16.875 43.3125 14.8125 46.5L11.4375 51.75C11.25 52.125 11.25 52.6875 11.4375 53.0625L15.1875 59.25C15.375 59.625 15.5625 59.8125 15.9375 59.8125H16.125C16.3125 59.8125 16.6875 59.8125 16.875 59.625C21.5625 56.4375 27.1875 54.75 32.8125 54.75C36.9375 54.75 40.6875 52.5 42.5625 48.9375L45.9375 42.9375C46.3125 42.75 46.3125 42.1875 46.125 41.8125Z" fill="#F5FEBA"/>
</svg>
